# xmcd CD database file
#
# Track frame offsets:
#	150
#	16150
#	29792
#	42885
#	57371
#	66801
#	81423
#	95514
#	107309
#	121408
#	135372
#	149799
#	164097
#	177954
#	190220
#	203780
#
# Disc length: 2915 seconds
#
# Revision: 0
# Processed by: cddbd v1.5.2PL0 Copyright (c) Steve Scherf et al.
# Submitted via: CDex 1.51
#
DISCID=e70b6110
DTITLE=Varios - Best Of Big Band Jazz [CD1)
DYEAR=1900
DGENRE=Jazz
TTITLE0=Glenn Miller - In The Mood
TTITLE1=Count Basie - Jumin´ At The Woodside
TTITLE2=Stan Keaton - Painted Rhythm
TTITLE3=Tommy Dorsey - On The Sunny
TTITLE4=Tony Bennett with The Count Basie Orcestra - Jeepers Creepers
TTITLE5=Benny Goodman - Stompin´ At The Savoy
TTITLE6=Duke Ellington - Perdido
TTITLE7=Ella Fizgerald with Chick Webb and His Orchestra - A-Tisket, A-Tisket
TTITLE8=Bix Biederbecke - Ostich Walk
TTITLE9=Lionel Hamton (feat. Ella Fitzgerald) - Flyin´ Home #2
TTITLE10=Gene Krupa - Buggie Call Rag
TTITLE11=Count Basie - Leater Leaps In
TTITLE12=Stan Keaton - Zoot
TTITLE13=Duke Ellington - Mood Indigo
TTITLE14=Artie Shaw and His Orchestra - Dancing In The Dark
TTITLE15=Woody Herman - Apple Houney
EXTD=
EXTT0=
EXTT1=
EXTT2=
EXTT3=
EXTT4=
EXTT5=
EXTT6=
EXTT7=
EXTT8=
EXTT9=
EXTT10=
EXTT11=
EXTT12=
EXTT13=
EXTT14=
EXTT15=
PLAYORDER=
